<svg width="109" height="33" fill="none" xmlns="http://www.w3.org/2000/svg"><path d="M102.434 0H6.566C2.94 0 0 2.955 0 6.6v19.8C0 30.045 2.94 33 6.566 33h95.868c3.626 0 6.566-2.955 6.566-6.6V6.6c0-3.645-2.94-6.6-6.566-6.6Z" fill="#D6DEEA"/><path fill-rule="evenodd" clip-rule="evenodd" d="M34.878 24.67h.836c.021-.215.074-.414.157-.596a1.48 1.48 0 0 1 .81-.78c.185-.075.39-.112.615-.112.248 0 .472.043.67.13.196.088.365.208.503.36.139.154.244.335.318.543.073.208.11.435.11.68v.068c0 .244-.037.47-.11.68-.069.2-.177.383-.318.54-.138.152-.305.271-.502.357-.197.086-.419.13-.665.13-.231 0-.44-.039-.629-.116a1.482 1.482 0 0 1-.815-.801 1.895 1.895 0 0 1-.147-.613h-.833v1.467h-.604v-3.363h.604v1.427Zm1.43.293c0 .168.019.326.06.475.042.15.104.28.187.394a.92.92 0 0 0 .311.268c.125.066.27.1.436.1a.922.922 0 0 0 .435-.099.908.908 0 0 0 .311-.27c.082-.112.145-.244.186-.393a1.72 1.72 0 0 0 .064-.475v-.069c0-.165-.021-.323-.064-.473a1.21 1.21 0 0 0-.188-.395.93.93 0 0 0-.313-.27.91.91 0 0 0-.437-.102.875.875 0 0 0-.741.372c-.086.119-.15.253-.187.395a1.79 1.79 0 0 0-.06.474v.068Zm4.955.211h-.438v1.433h-.603v-3.363h.603v1.424h.393l1.18-1.424h.726l-1.388 1.617 1.504 1.746h-.762l-1.215-1.433Zm5.899-1.93v3.363h-.603V23.72h-1.19l-.042.963a6.792 6.792 0 0 1-.086.84c-.032.21-.098.413-.196.601a.893.893 0 0 1-.353.362 1.136 1.136 0 0 1-.554.121h-.176l.013-.513.13-.003a.484.484 0 0 0 .287-.08.54.54 0 0 0 .18-.248c.046-.112.08-.258.102-.436.022-.178.04-.393.053-.644l.066-1.439h2.369Zm3.659 3.363a.607.607 0 0 1-.052-.157 2.584 2.584 0 0 1-.032-.197 1.579 1.579 0 0 1-.19.16 1.368 1.368 0 0 1-.808.256c-.18 0-.342-.026-.488-.078a1.148 1.148 0 0 1-.373-.21.912.912 0 0 1-.323-.707c0-.18.037-.339.11-.476a.965.965 0 0 1 .316-.347c.138-.093.304-.164.498-.211.195-.048.412-.072.652-.072h.596v-.264a.63.63 0 0 0-.188-.48c-.125-.12-.31-.179-.554-.179-.112 0-.215.015-.309.044a.798.798 0 0 0-.238.116.552.552 0 0 0-.153.17.401.401 0 0 0-.055.201h-.604c0-.12.033-.24.099-.357.066-.118.16-.225.28-.318a1.49 1.49 0 0 1 .44-.23c.172-.06.364-.09.575-.09.19 0 .366.024.527.07.162.047.299.118.414.212a.992.992 0 0 1 .269.353c.064.14.097.306.097.494v1.564c0 .114.01.234.03.358.021.126.052.234.093.326v.05h-.63Zm-.995-.438c.108 0 .21-.015.305-.044.095-.029.18-.066.259-.113a.946.946 0 0 0 .202-.16.779.779 0 0 0 .135-.187v-.69h-.5c-.343 0-.607.051-.794.154a.5.5 0 0 0-.278.465.6.6 0 0 0 .042.226c.028.07.072.133.128.183a.642.642 0 0 0 .21.121c.084.03.18.045.291.045Zm4.511-2.732c.23 0 .433.038.613.114.18.078.332.184.457.321s.222.297.287.483c.066.185.099.387.099.605v.071c0 .235-.035.452-.105.652a1.425 1.425 0 0 1-.8.862 1.66 1.66 0 0 1-.66.125 1.66 1.66 0 0 1-.66-.126 1.426 1.426 0 0 1-.802-.861c-.073-.21-.11-.43-.107-.652v-.307c0-.382.038-.715.115-1.002a2.29 2.29 0 0 1 .324-.727 1.62 1.62 0 0 1 .5-.472c.195-.116.41-.196.646-.24.113-.018.225-.04.337-.068.1-.024.183-.055.254-.093a.43.43 0 0 0 .16-.138.357.357 0 0 0 .056-.204h.492c0 .203-.033.364-.098.482a.74.74 0 0 1-.263.277 1.265 1.265 0 0 1-.376.147c-.145.033-.29.064-.436.095-.142.03-.282.072-.416.128a1.212 1.212 0 0 0-.617.559c-.08.156-.134.324-.16.497.142-.157.312-.286.5-.38a1.43 1.43 0 0 1 .66-.148Zm-.116.472a.986.986 0 0 0-.428.086.848.848 0 0 0-.3.23.947.947 0 0 0-.175.336c-.038.13-.057.264-.057.399v.071c0 .158.02.308.057.449.038.142.097.267.177.373a.87.87 0 0 0 .732.35.921.921 0 0 0 .43-.095.862.862 0 0 0 .302-.255c.079-.106.138-.23.176-.372.04-.142.059-.292.059-.45v-.072c0-.138-.02-.271-.06-.398a.956.956 0 0 0-.177-.336.859.859 0 0 0-.303-.23 1.013 1.013 0 0 0-.433-.086Zm4.793.986c0-.245.038-.472.112-.68.075-.208.18-.389.318-.542.139-.155.31-.278.5-.36.198-.088.417-.131.662-.131.248 0 .471.043.67.13.196.088.365.208.503.36.138.154.244.335.318.543.073.208.11.435.11.68v.068c0 .244-.037.47-.11.68-.069.2-.177.383-.318.54a1.46 1.46 0 0 1-.502.357c-.197.086-.418.13-.665.13-.247 0-.468-.044-.664-.13a1.456 1.456 0 0 1-.503-.357 1.592 1.592 0 0 1-.32-.541 2.001 2.001 0 0 1-.11-.679v-.069Zm.603.068c0 .168.02.326.062.475.04.15.103.28.186.394a.907.907 0 0 0 .311.268c.124.066.27.1.436.1a.918.918 0 0 0 .434-.099.902.902 0 0 0 .312-.27c.082-.112.144-.244.186-.393.042-.149.063-.307.063-.475v-.069c0-.165-.02-.323-.063-.473a1.208 1.208 0 0 0-.188-.395.93.93 0 0 0-.313-.27.91.91 0 0 0-.437-.102.878.878 0 0 0-.74.372 1.167 1.167 0 0 0-.187.395 1.791 1.791 0 0 0-.062.474v.068Zm6.696-1.72v3.364h-.603V23.72h-1.19l-.041.963a6.8 6.8 0 0 1-.086.84c-.032.21-.099.413-.197.601a.892.892 0 0 1-.352.362 1.136 1.136 0 0 1-.555.121h-.175l.013-.513.13-.003a.484.484 0 0 0 .287-.08.541.541 0 0 0 .18-.248 1.78 1.78 0 0 0 .102-.436c.022-.178.04-.393.053-.644l.065-1.439h2.37Zm3.763 0h.6v3.364h-.6v-2.452l-1.617 2.452h-.6v-3.363h.6v2.455l1.617-2.455Zm4.96 3.364h-.6v-1.436h-1.611v1.436h-.603v-3.363h.603v1.458h1.61v-1.458h.6v3.363Zm3.759-2.887h-1.617v2.887h-.604v-3.363h2.221v.475Zm-36.402-5.2-.158-.453-.365-1.04c-.12-.347-.242-.694-.363-1.04l-.16-.452H37.21l-1.046 2.984h-1.362l3.836-10.425h1.283l3.836 10.425h-1.363Zm-3.136-8.844-.17.48-.415 1.188c-.162.473-.328.945-.493 1.416l-.419 1.19-.169.48h3.375L39.3 9.676h-.043Zm9.445.983c.99 0 1.792.363 2.408 1.091.616.727.923 1.686.923 2.876 0 1.189-.306 2.148-.916 2.875-.61.727-1.406 1.091-2.386 1.091-.553 0-1.043-.117-1.471-.35a2.566 2.566 0 0 1-1.01-.987h-.028v3.865h-1.254V10.73h1.189v1.265h.029c.225-.405.567-.729 1.024-.972.46-.244.972-.37 1.492-.365v.001Zm-.23 6.813c.687 0 1.238-.259 1.654-.777.416-.518.624-1.207.624-2.07 0-.862-.208-1.552-.624-2.07-.416-.517-.967-.776-1.655-.776-.668 0-1.211.262-1.63.787-.418.525-.627 1.211-.627 2.06 0 .847.21 1.533.628 2.059.418.524.96.787 1.63.787Zm8.795-6.813c.99 0 1.793.363 2.408 1.091.616.727.924 1.686.924 2.876 0 1.189-.306 2.148-.916 2.875-.611.727-1.406 1.091-2.387 1.091-.553 0-1.043-.117-1.47-.35a2.566 2.566 0 0 1-1.01-.987h-.029v3.865h-1.254V10.73h1.189v1.265h.03c.225-.405.567-.729 1.023-.972.46-.244.973-.37 1.492-.365v.001Zm-.23 6.813c.687 0 1.238-.259 1.655-.777.415-.518.623-1.207.623-2.07 0-.862-.208-1.552-.623-2.07-.417-.517-.968-.776-1.655-.776-.668 0-1.211.262-1.63.787-.418.525-.627 1.211-.627 2.06 0 .847.209 1.533.627 2.059.419.524.962.787 1.63.787Zm8.436-1.82c.062.92.446 1.656 1.15 2.21.703.555 1.606.831 2.707.831 1.197 0 2.145-.278 2.844-.835.7-.555 1.05-1.31 1.05-2.264 0-.747-.237-1.345-.708-1.792-.47-.448-1.245-.807-2.32-1.076l-1.09-.29c-.706-.183-1.214-.4-1.525-.653a1.2 1.2 0 0 1-.465-.972c0-.511.213-.925.638-1.243.426-.318.975-.477 1.648-.477.678 0 1.228.162 1.65.484.424.323.664.764.722 1.322h1.298c-.029-.876-.382-1.592-1.06-2.145-.678-.555-1.533-.831-2.567-.831-1.081 0-1.964.274-2.65.823-.685.55-1.027 1.258-1.027 2.124 0 1.364.923 2.281 2.769 2.753l1.334.347c.701.178 1.212.41 1.532.693.32.285.479.648.479 1.091 0 .511-.23.934-.688 1.269-.46.334-1.04.501-1.742.501-.74 0-1.355-.17-1.845-.512-.49-.342-.767-.795-.83-1.359h-1.304Zm9.697-6.677v1.756h-1.082v1.04h1.082v4.726c0 .746.15 1.28.45 1.6.301.32.802.48 1.504.48.149 0 .302-.006.458-.018.156-.012.273-.027.35-.046V17.45c-.044.005-.125.012-.246.022a3.838 3.838 0 0 1-.296.015c-.331 0-.575-.085-.731-.253-.156-.169-.234-.432-.234-.788v-4.674h1.514V10.73h-1.514V8.975H75.17Zm7.542 9.617c-1.091 0-1.962-.36-2.61-1.08-.65-.72-.974-1.683-.974-2.886 0-1.21.325-2.173.974-2.89.648-.718 1.519-1.077 2.61-1.077 1.09 0 1.96.359 2.61 1.076.649.718.973 1.681.973 2.89 0 1.204-.324 2.167-.973 2.887-.65.72-1.52 1.08-2.61 1.08Zm0-1.12c.725 0 1.291-.252 1.698-.755.406-.503.609-1.201.609-2.092 0-.896-.203-1.594-.61-2.095-.406-.5-.971-.751-1.697-.751-.726 0-1.293.252-1.698.755-.407.503-.61 1.2-.61 2.092 0 .89.205 1.588.613 2.091.41.503.974.755 1.694.755Zm5.082 1.048h1.255V13.7c0-.548.153-.992.458-1.329.305-.337.71-.505 1.215-.505.154 0 .294.007.422.021.127.015.215.031.263.05v-1.234a3.056 3.056 0 0 0-.519-.044c-.452 0-.85.12-1.194.361a1.728 1.728 0 0 0-.688.976h-.029V10.73h-1.182v7.789Zm7.96-6.755c-.61 0-1.116.201-1.517.607-.401.404-.624.936-.667 1.596h4.276c-.015-.66-.213-1.192-.595-1.597s-.881-.607-1.497-.607Zm2.062 4.53h1.241c-.106.669-.461 1.22-1.067 1.65-.606.431-1.325.647-2.156.647-1.091 0-1.958-.355-2.6-1.066-.641-.71-.962-1.668-.962-2.871 0-1.21.32-2.178.959-2.905.64-.727 1.488-1.091 2.545-1.091 1.038 0 1.86.342 2.466 1.026.606.684.908 1.616.908 2.796v.491h-5.58v.073c0 .742.21 1.334.627 1.777.418.443.974.665 1.666.665.486 0 .904-.108 1.258-.322.353-.214.585-.505.696-.87Z" fill="#295091"/><path d="M24.757 25.016c-.909 1.328-1.848 2.647-3.331 2.675-1.46.028-1.928-.865-3.595-.865-1.668 0-2.189.837-3.567.893-1.432.053-2.522-1.434-3.438-2.757-1.871-2.701-3.299-7.64-1.379-10.973.953-1.656 2.656-2.703 4.503-2.73 1.406-.027 2.735.947 3.594.947.86 0 2.473-1.169 4.168-.997.71.029 2.702.286 3.981 2.156-.101.067-2.377 1.39-2.35 4.148.028 3.295 2.888 4.39 2.922 4.404-.026.078-.457 1.564-1.508 3.099ZM18.528 7.59c.785-.92 2.112-1.604 3.207-1.65.14 1.278-.375 2.557-1.133 3.478-.762.92-2.007 1.637-3.23 1.542-.166-1.25.45-2.554 1.156-3.37Z" fill="#295091"/></svg>