<svg width="300" height="21" fill="none" xmlns="http://www.w3.org/2000/svg"><path d="M1.66 20a.682.682 0 0 1-.504-.196.682.682 0 0 1-.196-.504V1.1c0-.205.065-.373.196-.504A.682.682 0 0 1 1.66.4h2.968c.317 0 .541.075.672.224.15.13.243.233.28.308l6.832 10.78V1.1c0-.205.065-.373.196-.504A.682.682 0 0 1 13.112.4h3.36c.205 0 .373.065.504.196.13.13.196.299.196.504v18.2a.745.745 0 0 1-.196.504.682.682 0 0 1-.504.196h-2.996c-.299 0-.523-.075-.672-.224a3.755 3.755 0 0 1-.252-.308L5.72 9.108V19.3a.682.682 0 0 1-.196.504.682.682 0 0 1-.504.196H1.66Zm18.305 0a.635.635 0 0 1-.42-.168.635.635 0 0 1-.168-.42c0-.093.01-.177.028-.252l6.58-17.976c.056-.205.168-.383.336-.532.187-.168.439-.252.756-.252h4.144c.317 0 .56.084.728.252.187.15.308.327.364.532l6.552 17.976a.556.556 0 0 1 .056.252c0 .15-.065.29-.196.42a.57.57 0 0 1-.42.168h-3.444c-.28 0-.495-.065-.644-.196a1.23 1.23 0 0 1-.252-.392l-1.092-2.856h-7.476l-1.064 2.856a1.23 1.23 0 0 1-.252.392c-.13.13-.355.196-.672.196h-3.444Zm6.58-7.476h5.208l-2.632-7.392-2.576 7.392ZM41.828 20a.745.745 0 0 1-.504-.196.682.682 0 0 1-.196-.504V1.1c0-.205.065-.373.196-.504A.745.745 0 0 1 41.828.4h3.024c.299 0 .523.084.672.252.168.15.27.27.308.364l4.928 8.848 4.928-8.848c.056-.093.15-.215.28-.364.15-.168.383-.252.7-.252h2.996c.205 0 .373.065.504.196a.64.64 0 0 1 .224.504v18.2a.64.64 0 0 1-.224.504.682.682 0 0 1-.504.196h-3.332a.78.78 0 0 1-.532-.196.682.682 0 0 1-.196-.504V8.8l-3.164 5.852a1.289 1.289 0 0 1-.336.448c-.15.13-.355.196-.616.196h-1.456c-.261 0-.467-.065-.616-.196-.15-.13-.27-.28-.364-.448L45.888 8.8v10.5a.683.683 0 0 1-.196.504.682.682 0 0 1-.504.196h-3.36Zm21.34 0a.635.635 0 0 1-.42-.168.635.635 0 0 1-.168-.42c0-.093.01-.177.028-.252l6.58-17.976c.056-.205.168-.383.336-.532.187-.168.439-.252.756-.252h4.144c.317 0 .56.084.728.252.187.15.308.327.364.532l6.552 17.976a.555.555 0 0 1 .056.252c0 .15-.065.29-.196.42a.57.57 0 0 1-.42.168h-3.444c-.28 0-.494-.065-.644-.196-.13-.15-.215-.28-.252-.392l-1.092-2.856H68.6l-1.064 2.856a1.23 1.23 0 0 1-.252.392c-.13.13-.355.196-.672.196h-3.444Zm6.58-7.476h5.208l-2.632-7.392-2.576 7.392ZM85.031 20a.682.682 0 0 1-.504-.196.682.682 0 0 1-.196-.504V1.1c0-.205.065-.373.196-.504A.682.682 0 0 1 85.031.4H88c.317 0 .541.075.672.224.15.13.243.233.28.308l6.832 10.78V1.1c0-.205.065-.373.196-.504A.682.682 0 0 1 96.483.4h3.36c.205 0 .373.065.504.196a.68.68 0 0 1 .196.504v18.2a.744.744 0 0 1-.196.504.683.683 0 0 1-.504.196h-2.996c-.299 0-.523-.075-.672-.224a3.755 3.755 0 0 1-.252-.308l-6.832-10.36V19.3a.682.682 0 0 1-.196.504.682.682 0 0 1-.504.196h-3.36Zm27.517.28c-1.773 0-3.304-.29-4.592-.868-1.269-.597-2.259-1.456-2.968-2.576-.691-1.139-1.073-2.52-1.148-4.144a108.01 108.01 0 0 1-.028-2.548c0-.915.009-1.783.028-2.604.075-1.587.467-2.93 1.176-4.032.709-1.101 1.708-1.941 2.996-2.52s2.8-.868 4.536-.868c1.4 0 2.641.177 3.724.532 1.083.336 1.988.793 2.716 1.372.747.579 1.307 1.213 1.68 1.904.392.69.597 1.372.616 2.044a.456.456 0 0 1-.168.42.57.57 0 0 1-.42.168h-4.088c-.205 0-.364-.028-.476-.084a1.074 1.074 0 0 1-.252-.308 3.774 3.774 0 0 0-.588-.868c-.243-.317-.588-.588-1.036-.812-.429-.224-.999-.336-1.708-.336-1.064 0-1.904.28-2.52.84-.597.56-.924 1.456-.98 2.688a70.663 70.663 0 0 0 0 4.872c.056 1.307.401 2.25 1.036 2.828.635.579 1.475.868 2.52.868.709 0 1.335-.121 1.876-.364.56-.243.999-.616 1.316-1.12.317-.523.476-1.185.476-1.988v-.532h-2.632a.781.781 0 0 1-.532-.196.78.78 0 0 1-.196-.532V9.444a.68.68 0 0 1 .196-.504.727.727 0 0 1 .532-.224h7.056a.64.64 0 0 1 .504.224.68.68 0 0 1 .196.504v3.192c0 1.605-.364 2.977-1.092 4.116-.728 1.139-1.764 2.016-3.108 2.632-1.325.597-2.875.896-4.648.896Zm10.503-.28a.636.636 0 0 1-.42-.168.635.635 0 0 1-.168-.42c0-.093.009-.177.028-.252l6.58-17.976c.056-.205.168-.383.336-.532.187-.168.439-.252.756-.252h4.144c.317 0 .56.084.728.252.187.15.308.327.364.532l6.552 17.976a.56.56 0 0 1 .056.252c0 .15-.065.29-.196.42a.57.57 0 0 1-.42.168h-3.444c-.28 0-.495-.065-.644-.196a1.219 1.219 0 0 1-.252-.392l-1.092-2.856h-7.476l-1.064 2.856a1.219 1.219 0 0 1-.252.392c-.131.13-.355.196-.672.196h-3.444Zm6.58-7.476h5.208l-2.632-7.392-2.576 7.392ZM144.914 20a.683.683 0 0 1-.504-.196.681.681 0 0 1-.196-.504V1.1a.68.68 0 0 1 .196-.504.683.683 0 0 1 .504-.196h2.968c.317 0 .541.075.672.224.149.13.243.233.28.308l6.832 10.78V1.1a.68.68 0 0 1 .196-.504.683.683 0 0 1 .504-.196h3.36c.205 0 .373.065.504.196a.68.68 0 0 1 .196.504v18.2a.744.744 0 0 1-.196.504.683.683 0 0 1-.504.196h-2.996c-.299 0-.523-.075-.672-.224a3.626 3.626 0 0 1-.252-.308l-6.832-10.36V19.3a.681.681 0 0 1-.196.504.683.683 0 0 1-.504.196h-3.36Zm20.125 0a.683.683 0 0 1-.504-.196.681.681 0 0 1-.196-.504V1.1a.68.68 0 0 1 .196-.504.683.683 0 0 1 .504-.196h3.696c.187 0 .345.065.476.196a.64.64 0 0 1 .224.504v14.672h8.456a.64.64 0 0 1 .504.224.64.64 0 0 1 .224.504v2.8a.64.64 0 0 1-.224.504.683.683 0 0 1-.504.196h-12.852Zm16.707 0a.683.683 0 0 1-.504-.196.681.681 0 0 1-.196-.504V1.1a.68.68 0 0 1 .196-.504.683.683 0 0 1 .504-.196h3.752c.205 0 .373.065.504.196a.68.68 0 0 1 .196.504v18.2a.681.681 0 0 1-.196.504.683.683 0 0 1-.504.196h-3.752Zm9.078 0a.683.683 0 0 1-.504-.196.681.681 0 0 1-.196-.504V1.1a.68.68 0 0 1 .196-.504.683.683 0 0 1 .504-.196h3.528c.205 0 .373.065.504.196a.68.68 0 0 1 .196.504v6.216l5.18-6.384c.075-.112.196-.224.364-.336.187-.13.429-.196.728-.196h4.032a.53.53 0 0 1 .42.196.537.537 0 0 1 .168.392.52.52 0 0 1-.112.336L199.14 9.78l7.224 9.296c.075.075.112.187.112.336 0 .15-.065.29-.196.42a.538.538 0 0 1-.392.168h-4.172c-.336 0-.597-.075-.784-.224a2.728 2.728 0 0 1-.336-.336l-5.544-6.916V19.3a.681.681 0 0 1-.196.504.683.683 0 0 1-.504.196h-3.528Zm18.539 0a.683.683 0 0 1-.504-.196.681.681 0 0 1-.196-.504V1.1a.68.68 0 0 1 .196-.504.683.683 0 0 1 .504-.196h3.696c.187 0 .345.065.476.196a.64.64 0 0 1 .224.504v14.672h8.456a.64.64 0 0 1 .504.224.64.64 0 0 1 .224.504v2.8a.64.64 0 0 1-.224.504.683.683 0 0 1-.504.196h-12.852Zm14.887 0a.636.636 0 0 1-.42-.168.635.635 0 0 1-.168-.42c0-.093.009-.177.028-.252l6.58-17.976c.056-.205.168-.383.336-.532.187-.168.439-.252.756-.252h4.144c.317 0 .56.084.728.252.187.15.308.327.364.532l6.552 17.976a.56.56 0 0 1 .056.252c0 .15-.065.29-.196.42a.57.57 0 0 1-.42.168h-3.444c-.28 0-.495-.065-.644-.196a1.219 1.219 0 0 1-.252-.392l-1.092-2.856h-7.476l-1.064 2.856a1.219 1.219 0 0 1-.252.392c-.131.13-.355.196-.672.196h-3.444Zm6.58-7.476h5.208l-2.632-7.392-2.576 7.392ZM246.113 20a.683.683 0 0 1-.504-.196.681.681 0 0 1-.196-.504V1.1a.68.68 0 0 1 .196-.504.683.683 0 0 1 .504-.196h7.616c2.408 0 4.303.56 5.684 1.68 1.4 1.101 2.1 2.67 2.1 4.704 0 1.325-.327 2.445-.98 3.36a5.964 5.964 0 0 1-2.52 2.072l3.864 6.888a.697.697 0 0 1 .084.308c0 .15-.065.29-.196.42a.57.57 0 0 1-.42.168h-3.696c-.355 0-.616-.084-.784-.252a2.393 2.393 0 0 1-.364-.504l-3.192-6.16h-2.884V19.3a.681.681 0 0 1-.196.504.683.683 0 0 1-.504.196h-3.612Zm4.312-10.864h3.248c.877 0 1.531-.215 1.96-.644.448-.43.672-1.017.672-1.764 0-.728-.215-1.316-.644-1.764-.411-.448-1.073-.672-1.988-.672h-3.248v4.844ZM264.689 20a.78.78 0 0 1-.532-.196.681.681 0 0 1-.196-.504v-1.988c0-.13.037-.327.112-.588.074-.28.27-.541.587-.784l2.913-2.856c1.493-1.139 2.716-2.1 3.668-2.884.97-.803 1.689-1.512 2.156-2.128.466-.616.7-1.195.7-1.736 0-.635-.168-1.157-.504-1.568-.318-.43-.878-.644-1.68-.644-.542 0-.999.121-1.372.364a2.204 2.204 0 0 0-.812.896 4.363 4.363 0 0 0-.392 1.148c-.075.243-.206.41-.392.504-.168.093-.355.14-.56.14h-3.5a.57.57 0 0 1-.42-.168.57.57 0 0 1-.168-.42 6.353 6.353 0 0 1 .56-2.52 6.658 6.658 0 0 1 1.54-2.072 7.1 7.1 0 0 1 2.38-1.428c.933-.336 1.978-.504 3.136-.504 1.586 0 2.93.252 4.032.756 1.12.504 1.969 1.213 2.548 2.128.578.896.868 1.95.868 3.164 0 .915-.206 1.773-.616 2.576-.392.784-.962 1.54-1.708 2.268a28.018 28.018 0 0 1-2.604 2.212l-2.576 2.604h7.196c.205 0 .373.065.504.196a.64.64 0 0 1 .224.504V19.3a.64.64 0 0 1-.224.504.683.683 0 0 1-.504.196h-14.364Zm27.117 0a.744.744 0 0 1-.504-.196.681.681 0 0 1-.196-.504v-3.164h-8.708a.744.744 0 0 1-.504-.196.681.681 0 0 1-.196-.504v-2.66c0-.168.028-.317.084-.448.075-.15.149-.29.224-.42L290.154.876c.243-.317.588-.476 1.036-.476h4.06c.205 0 .373.065.504.196a.64.64 0 0 1 .224.504v10.864h2.464c.224 0 .401.075.532.224.131.13.196.29.196.476v2.772a.64.64 0 0 1-.224.504.648.648 0 0 1-.476.196h-2.492V19.3a.64.64 0 0 1-.224.504.683.683 0 0 1-.504.196h-3.444Zm-5.292-7.84h4.704V5.552l-4.704 6.608Z" fill="#295091"/></svg>