<svg width="111" height="33" fill="none" xmlns="http://www.w3.org/2000/svg"><path d="M107.616 0H3.384A3.376 3.376 0 0 0 0 3.367v26.266A3.376 3.376 0 0 0 3.384 33h104.232A3.376 3.376 0 0 0 111 29.633V3.367A3.376 3.376 0 0 0 107.616 0Z" fill="#295091" fill-opacity=".19"/><path fill-rule="evenodd" clip-rule="evenodd" d="M36.806 24.225h.923c.024-.25.081-.48.173-.691.093-.211.214-.393.364-.546a1.63 1.63 0 0 1 .531-.357 1.72 1.72 0 0 1 .678-.13c.274 0 .52.05.739.151.218.101.404.24.556.418.153.177.27.387.35.628.082.241.123.503.123.786v.08c0 .282-.041.545-.122.786a1.84 1.84 0 0 1-.35.626 1.614 1.614 0 0 1-.556.414c-.23.102-.48.154-.733.15a1.746 1.746 0 0 1-.694-.133 1.63 1.63 0 0 1-.538-.37 1.777 1.777 0 0 1-.362-.559 2.282 2.282 0 0 1-.162-.71h-.92v1.7h-.665v-3.895h.665v1.652Zm1.578.338c0 .195.023.378.067.551.046.173.115.325.207.456a.971.971 0 0 0 .824.426.972.972 0 0 0 .823-.426c.09-.131.16-.283.206-.456.047-.173.07-.357.07-.55v-.08a2.11 2.11 0 0 0-.07-.549 1.43 1.43 0 0 0-.208-.456.966.966 0 0 0-.828-.43c-.181 0-.34.038-.475.116-.136.078-.25.182-.342.314a1.397 1.397 0 0 0-.206.456 2.172 2.172 0 0 0-.068.549v.08Zm5.47.245h-.483v1.66h-.666v-3.895h.666v1.648h.433l1.302-1.648h.801l-1.53 1.872 1.66 2.022h-.842l-1.341-1.66Zm6.51-2.235v3.894H49.7v-3.343h-1.314l-.046 1.116c-.016.37-.048.693-.095.971a2.323 2.323 0 0 1-.216.697c-.087.174-.223.32-.39.42-.163.093-.366.14-.612.14h-.193l.013-.595.144-.003a.516.516 0 0 0 .317-.092.626.626 0 0 0 .199-.288c.05-.13.088-.299.112-.505.025-.207.045-.455.059-.745l.072-1.667h2.615Zm4.04 3.894a.72.72 0 0 1-.057-.181 3.14 3.14 0 0 1-.036-.229c-.065.067-.135.13-.21.185-.256.196-.57.3-.893.297a1.516 1.516 0 0 1-.538-.09 1.259 1.259 0 0 1-.411-.244 1.106 1.106 0 0 1-.356-.817 1.099 1.099 0 0 1 .471-.954c.15-.108.334-.19.549-.245.235-.058.477-.085.72-.083h.657V23.8c0-.233-.07-.418-.207-.556-.139-.138-.343-.207-.612-.207a1.088 1.088 0 0 0-.34.05.854.854 0 0 0-.263.136.627.627 0 0 0-.17.196.483.483 0 0 0-.06.234h-.666c0-.14.036-.278.109-.414.072-.137.176-.26.31-.37a1.63 1.63 0 0 1 .484-.265c.19-.069.401-.103.635-.103.21 0 .404.026.582.08.177.054.33.137.456.246.126.109.225.245.297.408.071.163.107.354.107.573v1.81c0 .132.011.27.034.416.023.145.057.27.102.376v.057h-.694Zm-1.098-.507c.119 0 .231-.017.336-.05.105-.034.2-.078.286-.132.086-.053.16-.115.223-.185a.907.907 0 0 0 .149-.216v-.8h-.551c-.379 0-.671.06-.877.18a.584.584 0 0 0-.307.537c0 .094.015.181.047.263.03.08.078.152.14.21.064.06.142.106.234.14a.893.893 0 0 0 .32.053Zm4.98-3.164c.252 0 .478.045.676.133.198.089.365.213.504.371.138.158.244.345.317.56.072.215.108.448.108.7v.083c0 .27-.038.522-.115.754-.072.221-.188.425-.34.6-.15.17-.336.306-.544.398-.23.1-.478.149-.728.144a1.754 1.754 0 0 1-.728-.144 1.577 1.577 0 0 1-.544-.397 1.75 1.75 0 0 1-.342-.602 2.329 2.329 0 0 1-.118-.754v-.356c0-.441.043-.828.127-1.158a2.72 2.72 0 0 1 .358-.843 1.85 1.85 0 0 1 .552-.547c.215-.135.453-.227.713-.277.138-.024.262-.05.372-.08.11-.028.203-.064.28-.108a.482.482 0 0 0 .177-.16.43.43 0 0 0 .061-.235h.544c0 .235-.036.42-.11.557a.837.837 0 0 1-.289.32c-.127.08-.268.138-.415.172a25.37 25.37 0 0 1-.48.11 2.443 2.443 0 0 0-.46.148 1.37 1.37 0 0 0-.39.251 1.404 1.404 0 0 0-.292.396c-.081.158-.14.35-.176.576a1.92 1.92 0 0 1 .553-.44c.224-.117.475-.176.728-.172Zm-.13.547c-.18 0-.338.034-.472.1a.945.945 0 0 0-.33.266 1.12 1.12 0 0 0-.194.388c-.042.151-.063.307-.063.463v.083c0 .182.021.355.063.52.042.164.107.308.195.431a.984.984 0 0 0 .333.296c.133.073.292.11.476.11.18 0 .338-.037.474-.11a.97.97 0 0 0 .333-.296c.086-.123.151-.267.195-.431.043-.17.065-.345.064-.52v-.083c0-.162-.022-.315-.064-.463a1.126 1.126 0 0 0-.197-.388.955.955 0 0 0-.335-.267 1.077 1.077 0 0 0-.477-.099Zm5.291 1.141c0-.283.04-.546.123-.786.076-.23.195-.443.351-.628.152-.178.336-.317.553-.418.217-.1.46-.151.73-.151.274 0 .52.05.739.151.218.101.403.24.556.418.152.177.27.387.35.628.082.241.123.503.123.786v.08c0 .282-.041.545-.122.786-.081.241-.199.45-.35.626a1.614 1.614 0 0 1-.556.414c-.216.1-.462.15-.733.15-.272 0-.516-.05-.734-.15a1.615 1.615 0 0 1-.555-.414 1.865 1.865 0 0 1-.351-.626 2.42 2.42 0 0 1-.124-.787v-.079Zm.666.08c0 .194.022.377.067.55.046.173.115.325.206.456a.968.968 0 0 0 .824.426.973.973 0 0 0 .824-.426c.09-.131.16-.283.205-.456.048-.173.07-.357.07-.55v-.08c.001-.185-.022-.37-.07-.549a1.431 1.431 0 0 0-.207-.456.967.967 0 0 0-.828-.43.939.939 0 0 0-.476.116c-.135.078-.25.182-.342.314a1.41 1.41 0 0 0-.206.456 2.172 2.172 0 0 0-.067.549v.08Zm7.39-1.991v3.894h-.665v-3.343h-1.313l-.047 1.116c-.016.37-.047.693-.094.971a2.326 2.326 0 0 1-.217.697c-.087.174-.222.32-.39.42-.162.093-.365.14-.612.14h-.192l.013-.595.144-.003a.517.517 0 0 0 .316-.092.626.626 0 0 0 .2-.288c.05-.13.087-.299.112-.505.025-.207.044-.455.059-.745l.071-1.667h2.616Zm4.154 0h.662v3.894h-.662v-2.84l-1.785 2.84h-.662v-3.894h.662v2.844l1.785-2.844Zm5.474 3.894h-.662v-1.662H78.69v1.663h-.666v-3.895h.666v1.688h1.778v-1.688h.662v3.894Zm4.15-3.343h-1.786v3.343h-.665v-3.894h2.45v.55Zm-3.932-9.761c.005.446-.051.89-.167 1.32-.098.37-.265.718-.491 1.027-.209.28-.479.509-.79.669-.31.16-.665.24-1.063.24-.472 0-.88-.083-1.223-.246a2.324 2.324 0 0 1-.85-.678v3.267h-.726v-8.867h.677l.036.906c.224-.32.507-.57.848-.752.342-.181.748-.272 1.22-.272.402 0 .76.077 1.076.23.313.154.586.38.795.658.215.284.379.626.49 1.027.112.4.168.849.168 1.347v.124Zm-.731-.125c.002-.35-.038-.7-.12-1.041-.068-.3-.19-.584-.359-.841a1.748 1.748 0 0 0-.613-.559 1.782 1.782 0 0 0-.872-.204 2.246 2.246 0 0 0-.7.1 1.806 1.806 0 0 0-.924.66 2.384 2.384 0 0 0-.265.465v3.072c.077.161.174.311.29.45.115.138.251.258.408.358.156.1.334.18.533.237.2.057.423.085.67.085.334 0 .623-.067.867-.204.244-.136.452-.33.606-.562.16-.239.28-.52.36-.844a4.4 4.4 0 0 0 .119-1.047v-.125ZM83.78 16.5h-.73V7.408h.73V16.5Zm6.146 0a1.989 1.989 0 0 1-.095-.405 5.47 5.47 0 0 1-.046-.489c-.242.3-.548.543-.896.71a3.016 3.016 0 0 1-1.341.303 2.671 2.671 0 0 1-.875-.136 1.969 1.969 0 0 1-.67-.382 1.709 1.709 0 0 1-.583-1.3c0-.311.07-.592.207-.843.146-.258.35-.477.598-.64.26-.175.576-.31.948-.402a5.18 5.18 0 0 1 1.253-.139h1.354v-.729c0-.458-.146-.818-.437-1.08-.29-.262-.714-.394-1.27-.394-.257 0-.492.034-.708.101-.216.067-.402.16-.558.278a1.337 1.337 0 0 0-.365.411 1.006 1.006 0 0 0-.132.5l-.73-.006c0-.24.06-.473.182-.698.122-.225.293-.425.514-.6.222-.176.488-.317.8-.424a3.18 3.18 0 0 1 1.033-.16c.35 0 .672.044.966.13.295.088.548.218.759.391.212.174.376.391.494.652.118.26.177.564.177.91v3.103c0 .11.004.225.012.343.008.118.021.233.04.344.018.11.039.215.063.316.025.1.053.189.086.263v.071h-.78v.001Zm-2.293-.51c.264 0 .51-.031.735-.097.225-.065.43-.155.612-.27.183-.114.342-.246.476-.399.132-.148.24-.314.323-.494v-1.409h-1.25c-.374 0-.708.033-1.002.098a2.48 2.48 0 0 0-.747.281 1.356 1.356 0 0 0-.467.447c-.108.18-.164.386-.161.595a1.165 1.165 0 0 0 .4.885c.128.113.283.2.466.266.183.066.387.098.615.098Zm6.907-.508 1.927-5.387h.786l-2.792 7.429c-.056.146-.129.31-.216.491-.088.182-.201.351-.342.51a1.8 1.8 0 0 1-.524.399 1.649 1.649 0 0 1-.905.154 4.327 4.327 0 0 1-.308-.047 1.95 1.95 0 0 1-.113-.027l-.007-.586c.126.02.252.03.38.035.194 0 .367-.024.517-.074.15-.05.282-.122.393-.219a1.43 1.43 0 0 0 .296-.364 3.12 3.12 0 0 0 .232-.503l.316-.846-2.487-6.351h.799l2.049 5.386Z" fill="#295091"/><path d="M8.122 26.184V8.165a1.584 1.584 0 0 1 .908-1.43l10.598 10.438-10.602 10.44a1.594 1.594 0 0 1-.904-1.427Zm14.89-5.655-11.506 6.41 9.075-8.755 2.431 2.345Zm3.466-4.3c.362.295.595.76.595 1.283 0 .515-.226.975-.578 1.27l-2.31 1.422-2.526-2.695 2.525-2.693 2.294 1.413ZM11.506 7.41l11.506 6.409-2.43 2.345-9.076-8.755Zm39.256 6.397c0 1.744-1.367 3.03-3.045 3.03-1.679 0-3.046-1.286-3.046-3.03 0-1.758 1.367-3.03 3.046-3.03 1.678 0 3.045 1.272 3.045 3.03Zm-1.333 0c0-1.09-.792-1.836-1.712-1.836-.92 0-1.713.746-1.713 1.836 0 1.08.792 1.837 1.713 1.837.92 0 1.712-.759 1.712-1.837Zm8.102 0c0 1.744-1.368 3.03-3.046 3.03-1.679 0-3.046-1.286-3.046-3.03 0-1.756 1.367-3.03 3.046-3.03 1.678 0 3.046 1.272 3.046 3.03Zm-1.334 0c0-1.09-.792-1.836-1.712-1.836-.92 0-1.712.746-1.712 1.836 0 1.08.791 1.837 1.712 1.837.92 0 1.712-.759 1.712-1.837Zm8.102-2.848v5.428c0 2.233-1.384 3.145-3.02 3.145-1.54 0-2.467-.98-2.816-1.782l1.215-.481c.216.491.745 1.073 1.6 1.073 1.047 0 1.696-.615 1.696-1.772v-.435h-.05c-.311.367-.913.687-1.672.687-1.589 0-3.045-1.317-3.045-3.01 0-1.709 1.456-3.036 3.045-3.036.758 0 1.36.321 1.673.677h.049v-.492h1.325v-.002Zm-1.227 2.851c0-1.064-.746-1.842-1.696-1.842-.962 0-1.769.778-1.769 1.842 0 1.055.807 1.822 1.77 1.822.949 0 1.695-.768 1.695-1.822Zm3.257-5.727v8.081h-1.353V8.082h1.353Zm5.036 6.723 1 .689c-.322.493-1.1 1.343-2.446 1.343-1.667 0-2.913-1.331-2.913-3.03 0-1.803 1.256-3.032 2.768-3.032 1.525 0 2.27 1.252 2.513 1.929l.134.344-3.924 1.677c.3.609.767.919 1.422.919.657 0 1.112-.333 1.446-.84Zm-3.08-1.09 2.623-1.125c-.144-.379-.579-.642-1.09-.642-.655 0-1.566.597-1.533 1.766Zm-28.51-1.103v-1.197h4.157c.041.21.062.455.062.722 0 .897-.253 2.007-1.069 2.798-.792.801-1.807 1.228-3.149 1.228-2.488 0-4.58-1.965-4.58-4.377 0-2.413 2.092-4.378 4.58-4.378 1.377 0 2.357.524 3.094 1.206l-.87.844a3.2 3.2 0 0 0-2.225-.854c-1.817 0-3.238 1.42-3.238 3.182 0 1.761 1.421 3.181 3.238 3.181 1.179 0 1.85-.458 2.28-.875.349-.338.578-.822.669-1.482l-2.95.002Z" fill="#295091"/></svg>