<svg width="36" height="38" fill="none" xmlns="http://www.w3.org/2000/svg"><path d="M18 .25C8.163.25.187 8.645.187 19S8.163 37.75 18 37.75 35.813 29.355 35.813 19 27.837.25 18 .25ZM1.823 21.304l5.086 1.333a8.792 8.792 0 0 0-.043.782c-.002 2.06.49 4.088 1.43 5.895l-2.562 1.014c-2.12-2.537-3.48-5.676-3.911-9.024ZM18 36.188c-4.068 0-7.79-1.578-10.653-4.18l2.123-.852c2.044 2.64 5.108 4.323 8.53 4.323 3.422 0 6.486-1.683 8.53-4.323l2.124.853c-2.862 2.6-6.584 4.178-10.654 4.178Zm-9.649-12.77c0-3.619 2.218-4.345 5.797-4.345.656 0 1.32.023 1.972.046 1.253.047 2.507.047 3.76 0a56.295 56.295 0 0 1 1.972-.046c3.58 0 5.798.726 5.798 4.346 0 5.788-4.33 10.498-9.65 10.498s-9.649-4.71-9.649-10.498Zm21.915 6.909-2.562-1.014a12.763 12.763 0 0 0 1.43-5.894c0-.277-.02-.53-.043-.783l5.086-1.332c-.43 3.348-1.79 6.487-3.911 9.023Zm-1.699-9.807c-1.385-3-4.976-3.01-6.715-3.01-.671 0-1.353.024-2.022.049-1.22.045-2.44.045-3.659 0a55.733 55.733 0 0 0-2.023-.048c-1.739 0-5.33.01-6.714 3.009l-5.76-1.499L1.671 19a17.71 17.71 0 0 1 3.007-9.92c.218.313.579.59.731.45a8.313 8.313 0 0 1 3.263-1.795 8.04 8.04 0 0 1 3.679-.164c.344.07.648-1.263.23-1.347A9.332 9.332 0 0 0 5.84 7.546C8.832 4.03 13.173 1.812 18 1.812c4.913 0 9.324 2.3 12.32 5.926a9.339 9.339 0 0 0-6.902-1.42c-.417.084-.115 1.418.23 1.347 2.474-.468 5.021.25 6.941 1.958.161.147.553-.164.765-.495 1.938 2.887 2.977 6.337 2.974 9.872v.02l-5.761 1.5Z" fill="#DC1E1E"/><path d="M21.018 11.533c-.454.165-.796.185-.737.46 1.193 5.483 6.059 6.854 9.698 2.736.181-.208-.106-.405-.42-.789-2.934 1.322-6.806.03-8.541-2.407Zm-6.035-.001c-1.912 2.687-5.88 3.607-8.54 2.41-.314.381-.602.579-.42.787 3.638 4.12 8.503 2.747 9.699-2.736.057-.275-.284-.296-.739-.461Z" fill="#DC1E1E"/></svg>